<svg width="25" height="24" viewBox="0 0 25 24" fill="none" xmlns="http://www.w3.org/2000/svg">
<ellipse cx="12.5" cy="12.0001" rx="12" ry="11.7647" fill="#FFF2E2"/>
<path d="M19.9232 10.098H8.25651V7.59798C8.25651 6.67882 9.00401 5.93132 9.92318 5.93132C10.8423 5.93132 11.5898 6.67882 11.5898 7.59798H13.2565C13.2565 5.75965 11.7615 4.26465 9.92318 4.26465C8.08484 4.26465 6.58984 5.75965 6.58984 7.59798V10.098H4.92318C4.70216 10.098 4.4902 10.1858 4.33392 10.3421C4.17764 10.4983 4.08984 10.7103 4.08984 10.9313V12.598C4.08984 14.7696 5.48484 16.6171 7.42318 17.3063V20.098H9.08984V17.598H15.7565V20.098H17.4232V17.3063C19.3615 16.6171 20.7565 14.7696 20.7565 12.598V10.9313C20.7565 10.7103 20.6687 10.4983 20.5124 10.3421C20.3562 10.1858 20.1442 10.098 19.9232 10.098ZM19.0898 12.598C19.0898 14.4363 17.5948 15.9313 15.7565 15.9313H9.08984C7.25151 15.9313 5.75651 14.4363 5.75651 12.598V11.7646H19.0898V12.598Z" fill="#FFAD33"/>
</svg>
