<svg width="25" height="24" viewBox="0 0 25 24" fill="none" xmlns="http://www.w3.org/2000/svg">
<ellipse cx="12.5" cy="12.0001" rx="12" ry="11.7647" fill="#FFF2E2"/>
<path d="M5.80859 15.8823V11.9608C5.80859 11.7286 5.87423 11.4813 6.00552 11.2188C6.1368 10.9563 6.32757 10.7592 6.57782 10.6274V8.82351C6.57782 8.38116 6.72577 8.00913 7.02167 7.70743C7.31757 7.40573 7.68244 7.25488 8.11629 7.25488H11.5778C11.843 7.25488 12.0694 7.31057 12.2571 7.42194C12.4442 7.53279 12.6024 7.68626 12.7317 7.88233C12.8609 7.68626 13.0191 7.53279 13.2063 7.42194C13.394 7.31057 13.6204 7.25488 13.8855 7.25488H17.3471C17.7809 7.25488 18.1458 7.40573 18.4417 7.70743C18.7376 8.00913 18.8855 8.38116 18.8855 8.82351V10.6274C19.1358 10.7592 19.3265 10.9563 19.4578 11.2188C19.5891 11.4813 19.6547 11.7286 19.6547 11.9608V15.8823H18.8855V14.3137H6.57782V15.8823H5.80859ZM13.1163 10.3921H18.1163V8.82351C18.1163 8.60129 18.0424 8.41514 17.8947 8.26508C17.7471 8.11501 17.5645 8.03972 17.3471 8.0392H13.8855C13.6676 8.0392 13.485 8.11449 13.3378 8.26508C13.1906 8.41567 13.1168 8.60181 13.1163 8.82351V10.3921ZM7.34706 10.3921H12.3471V8.82351C12.3471 8.60129 12.2732 8.41514 12.1255 8.26508C11.9778 8.11501 11.7953 8.03972 11.5778 8.0392H8.11629C7.89834 8.0392 7.71577 8.11449 7.56859 8.26508C7.42141 8.41567 7.34757 8.60181 7.34706 8.82351V10.3921Z" fill="#FFAD33"/>
</svg>
