<svg width="21" height="20" viewBox="0 0 21 20" fill="none" xmlns="http://www.w3.org/2000/svg">
<g id="Category-Camera" clip-path="url(#clip0_442_31689)">
<path id="Vector" d="M4.66667 5.83325H5.5C5.94203 5.83325 6.36595 5.65766 6.67851 5.3451C6.99107 5.03254 7.16667 4.60861 7.16667 4.16659C7.16667 3.94557 7.25446 3.73361 7.41074 3.57733C7.56702 3.42105 7.77899 3.33325 8 3.33325H13C13.221 3.33325 13.433 3.42105 13.5893 3.57733C13.7455 3.73361 13.8333 3.94557 13.8333 4.16659C13.8333 4.60861 14.0089 5.03254 14.3215 5.3451C14.634 5.65766 15.058 5.83325 15.5 5.83325H16.3333C16.7754 5.83325 17.1993 6.00885 17.5118 6.32141C17.8244 6.63397 18 7.05789 18 7.49992V14.9999C18 15.4419 17.8244 15.8659 17.5118 16.1784C17.1993 16.491 16.7754 16.6666 16.3333 16.6666H4.66667C4.22464 16.6666 3.80072 16.491 3.48816 16.1784C3.17559 15.8659 3 15.4419 3 14.9999V7.49992C3 7.05789 3.17559 6.63397 3.48816 6.32141C3.80072 6.00885 4.22464 5.83325 4.66667 5.83325" stroke="#5570F1" stroke-width="2" stroke-linecap="round" stroke-linejoin="round"/>
<path id="Vector_2" d="M10.5 13.3333C11.8807 13.3333 13 12.214 13 10.8333C13 9.45254 11.8807 8.33325 10.5 8.33325C9.11929 8.33325 8 9.45254 8 10.8333C8 12.214 9.11929 13.3333 10.5 13.3333Z" stroke="#5570F1" stroke-width="2" stroke-linecap="round" stroke-linejoin="round"/>
</g>
<defs>
<clipPath id="clip0_442_31689">
<rect width="20" height="20" fill="white" transform="translate(0.5)"/>
</clipPath>
</defs>
</svg>
