<svg width="25" height="24" viewBox="0 0 25 24" fill="none" xmlns="http://www.w3.org/2000/svg">
<g clip-path="url(#clip0_1312_3440)">
<path d="M13.405 8.84651L13.405 8.84646C13.4194 8.06035 13.7418 7.3113 14.3028 6.76049C14.8639 6.20969 15.6188 5.90116 16.405 5.90129L13.405 8.84651ZM13.405 8.84651L13.377 10.4213M13.405 8.84651L13.377 10.4213M5.25811 7.80857L5.39001 7.91846C7.26679 9.48211 9.21781 10.4182 11.2495 10.6952C11.2495 10.6952 11.2495 10.6952 11.2495 10.6952L12.8104 10.9072L5.25811 7.80857ZM5.25811 7.80857L5.22759 7.97751M5.25811 7.80857L5.22759 7.97751M5.22759 7.97751C4.92576 9.64819 5.0683 11.0709 5.6479 12.3018C6.22718 13.532 7.23827 14.5605 8.65577 15.4519L8.65579 15.452M5.22759 7.97751L8.65579 15.452M8.65579 15.452L10.4028 16.55L10.454 16.4685M8.65579 15.452L10.454 16.4685M10.454 16.4685L10.4028 16.55C10.472 16.5934 10.5294 16.6532 10.5702 16.724C10.6109 16.7948 10.6337 16.8745 10.6365 16.9562C10.6392 17.0378 10.622 17.1189 10.5862 17.1924C10.5504 17.2658 10.4972 17.3294 10.4311 17.3775L10.431 17.3775M10.454 16.4685L10.431 17.3775M10.431 17.3775L8.83901 18.5405L8.61542 18.7039M10.431 17.3775L8.61542 18.7039M8.61542 18.7039L8.89178 18.7211M8.61542 18.7039L8.89178 18.7211M8.89178 18.7211C9.8449 18.7805 10.7529 18.7385 11.5095 18.5884L11.5096 18.5884M8.89178 18.7211L11.5096 18.5884M11.5096 18.5884C13.8886 18.1134 15.8745 16.9794 17.2652 15.2211M11.5096 18.5884L17.2652 15.2211M13.377 10.4213C13.3757 10.4918 13.3594 10.5612 13.3293 10.625C13.2993 10.6887 13.2561 10.7454 13.2026 10.7912C13.149 10.8371 13.0864 10.8712 13.0188 10.8911C12.9513 10.9111 12.8803 10.9166 12.8105 10.9072L13.377 10.4213ZM17.2652 15.2211C18.6557 13.463 19.445 11.0883 19.445 8.14229M17.2652 15.2211L19.445 8.14229M19.445 8.14229C19.445 7.99668 19.3714 7.78474 19.244 7.55722M19.445 8.14229L19.244 7.55722M19.244 7.55722C19.1142 7.32559 18.9215 7.06508 18.6673 6.82049M19.244 7.55722L18.6673 6.82049M18.6673 6.82049C18.1587 6.33088 17.3999 5.90129 16.405 5.90129L18.6673 6.82049ZM20.9978 5.53842C21.3818 5.48388 21.8285 5.34345 22.416 5.01105C22.1101 6.49526 21.9321 7.16764 21.2642 8.08336L21.245 8.10969V8.14229C21.245 11.9415 20.078 14.7567 18.3258 16.7397C16.5726 18.7238 14.2277 19.8813 11.8624 20.3532C10.2453 20.6759 8.2544 20.5728 6.49643 20.2106C5.61813 20.0296 4.80077 19.7846 4.11983 19.4974C3.53727 19.2517 3.06009 18.9775 2.72956 18.6904C3.16065 18.6482 3.9114 18.5535 4.74366 18.3598C5.74355 18.1272 6.87173 17.7494 7.70306 17.141L7.81918 17.056L7.69904 16.9768C7.65724 16.9492 7.61178 16.9196 7.56301 16.8879C6.80477 16.3938 5.24648 15.3786 4.23155 13.5166C3.16714 11.5637 2.69257 8.66295 4.41362 4.42592C6.07889 6.34347 7.7726 7.66001 9.49504 8.3668L9.49505 8.36681C10.0766 8.60536 10.4426 8.72373 10.7318 8.79141C10.9509 8.84265 11.1261 8.86463 11.3117 8.88794C11.3703 8.89529 11.43 8.90278 11.4924 8.91135L11.7872 8.95189L11.6059 8.77077C11.631 7.8414 11.9254 6.93895 12.4539 6.17331C12.9904 5.39606 13.7442 4.79434 14.6211 4.4435C15.4979 4.09265 16.4588 4.00828 17.3833 4.20093C18.3079 4.39359 19.1551 4.85471 19.8189 5.52657L19.8485 5.55658L19.8907 5.55628C19.9934 5.55556 20.0972 5.55908 20.2036 5.56269C20.4483 5.57098 20.7068 5.57974 20.9978 5.53842Z" fill="#1C1D22" stroke="black" stroke-width="0.2"/>
</g>
<defs>
<clipPath id="clip0_1312_3440">
<rect width="24" height="24" fill="white" transform="translate(0.5)"/>
</clipPath>
</defs>
</svg>
