<svg width="25" height="24" viewBox="0 0 25 24" fill="none" xmlns="http://www.w3.org/2000/svg">
<path d="M17.5 3H7.5C6.43913 3 5.42172 3.42143 4.67157 4.17157C3.92143 4.92172 3.5 5.93913 3.5 7V17C3.5 18.0609 3.92143 19.0783 4.67157 19.8284C5.42172 20.5786 6.43913 21 7.5 21H17.5C18.5609 21 19.5783 20.5786 20.3284 19.8284C21.0786 19.0783 21.5 18.0609 21.5 17V7C21.5 5.93913 21.0786 4.92172 20.3284 4.17157C19.5783 3.42143 18.5609 3 17.5 3Z" stroke="#1C1D22" stroke-width="1.5" stroke-linejoin="round"/>
<path d="M12.5 16C13.5609 16 14.5783 15.5786 15.3284 14.8284C16.0786 14.0783 16.5 13.0609 16.5 12C16.5 10.9391 16.0786 9.92172 15.3284 9.17157C14.5783 8.42143 13.5609 8 12.5 8C11.4391 8 10.4217 8.42143 9.67157 9.17157C8.92143 9.92172 8.5 10.9391 8.5 12C8.5 13.0609 8.92143 14.0783 9.67157 14.8284C10.4217 15.5786 11.4391 16 12.5 16V16Z" stroke="#1C1D22" stroke-width="1.5" stroke-linejoin="round"/>
<path d="M18 7.5C18.2652 7.5 18.5196 7.39464 18.7071 7.20711C18.8946 7.01957 19 6.76522 19 6.5C19 6.23478 18.8946 5.98043 18.7071 5.79289C18.5196 5.60536 18.2652 5.5 18 5.5C17.7348 5.5 17.4804 5.60536 17.2929 5.79289C17.1054 5.98043 17 6.23478 17 6.5C17 6.76522 17.1054 7.01957 17.2929 7.20711C17.4804 7.39464 17.7348 7.5 18 7.5Z" fill="#1C1D22"/>
</svg>
