<svg width="25" height="24" viewBox="0 0 25 24" fill="none" xmlns="http://www.w3.org/2000/svg">
<path d="M12 9.05C12.917 8.113 14.111 7.5 15.5 7.5C16.9587 7.5 18.3576 8.07946 19.3891 9.11091C20.4205 10.1424 21 11.5413 21 13V20.5H19V13C19 12.0717 18.6313 11.1815 17.9749 10.5251C17.3185 9.86875 16.4283 9.5 15.5 9.5C14.5717 9.5 13.6815 9.86875 13.0251 10.5251C12.3687 11.1815 12 12.0717 12 13V20.5H10V8H12V9.05ZM5 6C4.60218 6 4.22064 5.84196 3.93934 5.56066C3.65804 5.27936 3.5 4.89782 3.5 4.5C3.5 4.10218 3.65804 3.72064 3.93934 3.43934C4.22064 3.15804 4.60218 3 5 3C5.39782 3 5.77936 3.15804 6.06066 3.43934C6.34196 3.72064 6.5 4.10218 6.5 4.5C6.5 4.89782 6.34196 5.27936 6.06066 5.56066C5.77936 5.84196 5.39782 6 5 6ZM4 8H6V20.5H4V8Z" fill="#1C1D22"/>
</svg>
