<svg width="111" height="99" viewBox="0 0 111 99" fill="none" xmlns="http://www.w3.org/2000/svg">
<g id="img" opacity="0.7">
<g id="icon">
<path d="M37 43.3125C40.8315 43.3125 43.9375 40.5423 43.9375 37.125C43.9375 33.7077 40.8315 30.9375 37 30.9375C33.1685 30.9375 30.0625 33.7077 30.0625 37.125C30.0625 40.5423 33.1685 43.3125 37 43.3125Z" fill="#5570F1"/>
<path fill-rule="evenodd" clip-rule="evenodd" d="M26.5937 11.3438C18.9308 11.3438 12.7188 16.8842 12.7188 23.7187V75.2812C12.7188 82.1158 18.9308 87.6562 26.5937 87.6562H84.4062C92.0692 87.6562 98.2812 82.1158 98.2812 75.2812V23.7187C98.2812 16.8842 92.0692 11.3438 84.4062 11.3438H26.5937ZM84.4062 19.5937H26.5937C24.0394 19.5937 21.9687 21.4406 21.9687 23.7187V55.7623L33.5256 49.4193C34.2947 48.9972 35.2689 49.013 36.0203 49.4598L48.3545 56.7936L67.9554 43.1966C68.7904 42.6173 69.9598 42.6173 70.7948 43.1966L89.0312 55.847V23.7187C89.0312 21.4406 86.9605 19.5937 84.4062 19.5937ZM21.9687 75.2812V65.4493L34.5878 58.5233L48.7708 66.9564L69.3751 52.6633L89.0312 66.2986V75.2812C89.0312 77.5594 86.9605 79.4062 84.4062 79.4062H26.5937C24.0394 79.4062 21.9687 77.5594 21.9687 75.2812Z" fill="#5570F1"/>
</g>
</g>
</svg>
