<svg width="163" height="28" viewBox="0 0 163 28" fill="none" xmlns="http://www.w3.org/2000/svg">
<g id="Vector">
<path d="M28.5879 24.4736H1.50462V13.1889L15.0462 1.19899L28.5879 13.1889V24.4736Z" fill="#E8EAF6"/>
<path d="M26.3309 11.7783L22.5694 8.25189V3.31486H26.3309V11.7783ZM1.50462 24.4736H28.5879V28H1.50462V24.4736Z" fill="#C5CAE9"/>
<path d="M15.0462 0L0 13.1184L1.50462 14.67L15.0462 2.89169L28.5879 14.67L30.0925 13.1184L15.0462 0Z" fill="#4A4CC7"/>
<path d="M10.5324 16.7154H19.5601V28H10.5324V16.7154Z" fill="#FFCC4D"/>
<path d="M12.7893 8.95718H17.3032V13.1889H12.7893V8.95718Z" fill="#4A4CC7"/>
<path d="M17.6793 22.005C17.4536 22.005 17.3032 22.1461 17.3032 22.3577V23.7683C17.3032 23.9798 17.4536 24.1209 17.6793 24.1209C17.905 24.1209 18.0555 23.9798 18.0555 23.7683V22.3577C18.0555 22.1461 17.905 22.005 17.6793 22.005Z" fill="#FF8A65"/>
<path d="M55.9419 24.1632C53.9659 24.1632 52.3309 23.7965 51.0369 23.063C49.7529 22.3295 48.795 21.2997 48.163 19.9738C47.5311 18.6479 47.2151 17.0915 47.2151 15.3048V4.02015H51.067V14.3738C51.067 15.3142 51.1322 16.1746 51.2626 16.9552C51.393 17.7263 51.6287 18.394 51.9697 18.9582C52.3208 19.513 52.8173 19.9409 53.4593 20.2418C54.1013 20.5427 54.9288 20.6932 55.9419 20.6932C56.9551 20.6932 57.7826 20.5427 58.4246 20.2418C59.0666 19.9409 59.5581 19.513 59.8991 18.9582C60.2502 18.394 60.4909 17.7263 60.6213 16.9552C60.7517 16.1746 60.8169 15.3142 60.8169 14.3738V4.02015H64.6688V15.3048C64.6688 17.0915 64.3528 18.6479 63.7209 19.9738C63.0889 21.2997 62.126 22.3295 60.832 23.063C59.548 23.7965 57.918 24.1632 55.9419 24.1632Z" fill="#F8B32E"/>
<path d="M68.0135 23.7683V9.66247H71.5042L71.6547 12.2861L70.782 11.2141C71.3538 10.7627 72.0359 10.3537 72.8283 9.9869C73.6207 9.62015 74.5436 9.43678 75.5968 9.43678C77.5227 9.43678 78.9521 10.0386 79.885 11.2423C80.8179 12.4366 81.2843 13.9882 81.2843 15.8972V23.7683H77.5528V16.1793C77.5528 14.8628 77.3171 13.8895 76.8456 13.2594C76.3842 12.6294 75.6269 12.3144 74.5737 12.3144C73.721 12.3144 73.0239 12.5118 72.4822 12.9068C71.9406 13.2924 71.4641 13.8096 71.0528 14.4584L71.745 12.7375V23.7683H68.0135Z" fill="#F8B32E"/>
<path d="M84.6173 23.7683V9.66247H88.3487V23.7683H84.6173ZM84.6173 7.51839V4.02015H88.3487V7.51839H84.6173Z" fill="#F8B32E"/>
<path d="M92.4484 23.7683V4.02015H100.303C102.319 4.02015 104.109 4.41511 105.674 5.20504C107.249 5.98556 108.483 7.11402 109.375 8.59043C110.268 10.0574 110.715 11.8254 110.715 13.8942C110.715 15.9631 110.268 17.7357 109.375 19.2121C108.483 20.6791 107.249 21.8076 105.674 22.5975C104.109 23.378 102.319 23.7683 100.303 23.7683H92.4484ZM95.9391 20.8343H100.303C101.757 20.8343 102.971 20.5521 103.944 19.9879C104.917 19.4143 105.649 18.6102 106.14 17.5758C106.642 16.532 106.893 15.3048 106.893 13.8942C106.893 12.4836 106.642 11.2611 106.14 10.2267C105.649 9.18287 104.917 8.37884 103.944 7.81461C102.971 7.24097 101.757 6.95415 100.303 6.95415H95.9391V20.8343Z" fill="#F8B32E"/>
<path d="M120.142 24.0504C118.537 24.0504 117.168 23.7212 116.035 23.063C114.911 22.4047 114.049 21.5254 113.447 20.4252C112.855 19.3249 112.559 18.1118 112.559 16.7859C112.559 15.4599 112.855 14.2421 113.447 13.1325C114.049 12.0228 114.911 11.1389 116.035 10.4806C117.168 9.81293 118.537 9.47909 120.142 9.47909C121.737 9.47909 123.101 9.81293 124.235 10.4806C125.368 11.1389 126.231 12.0228 126.823 13.1325C127.425 14.2421 127.726 15.4599 127.726 16.7859C127.726 18.1118 127.425 19.3249 126.823 20.4252C126.231 21.5254 125.368 22.4047 124.235 23.063C123.101 23.7212 121.737 24.0504 120.142 24.0504ZM120.142 21.3985C121.466 21.3985 122.485 20.98 123.197 20.1431C123.919 19.2967 124.28 18.1777 124.28 16.7859C124.28 15.3753 123.919 14.2469 123.197 13.4005C122.485 12.5542 121.466 12.131 120.142 12.131C118.818 12.131 117.795 12.5542 117.073 13.4005C116.351 14.2469 115.99 15.3753 115.99 16.7859C115.99 18.1777 116.351 19.2967 117.073 20.1431C117.795 20.98 118.818 21.3985 120.142 21.3985Z" fill="#F8B32E"/>
<path d="M130.374 23.7683V9.76121H133.413L133.579 11.5526C134.1 10.979 134.707 10.49 135.399 10.0856C136.091 9.68128 136.839 9.47909 137.641 9.47909C137.882 9.47909 138.108 9.5026 138.318 9.54962L138.047 12.7516C137.857 12.7046 137.666 12.6764 137.476 12.667C137.285 12.6482 137.089 12.6388 136.889 12.6388C136.207 12.6388 135.58 12.7845 135.008 13.0761C134.436 13.3676 134.035 13.7061 133.804 14.0917V23.7683H130.374Z" fill="#F8B32E"/>
<path d="M140.16 23.7683V9.76121H142.958L143.304 12.0463L142.597 11.4821C143.289 10.8709 144.047 10.3913 144.869 10.0433C145.702 9.69538 146.63 9.52141 147.653 9.52141C148.425 9.52141 149.127 9.63426 149.759 9.85995C150.401 10.0762 150.958 10.4148 151.429 10.8756C151.911 11.3364 152.297 11.9241 152.588 12.6388L151.73 12.399C152.202 11.4962 152.899 10.7909 153.822 10.2831C154.745 9.77531 155.858 9.52141 157.162 9.52141C158.496 9.52141 159.595 9.77061 160.457 10.269C161.32 10.758 161.957 11.4727 162.368 12.4131C162.789 13.3535 163 14.4866 163 15.8126V23.7683H159.63V15.9819C159.63 14.6747 159.394 13.7155 158.922 13.1043C158.451 12.4836 157.669 12.1733 156.575 12.1733C155.943 12.1733 155.412 12.272 154.98 12.4695C154.549 12.6576 154.208 12.9256 153.957 13.2736C153.706 13.6215 153.526 14.0165 153.416 14.4584C153.315 14.9004 153.265 15.3706 153.265 15.869V23.7683H149.895V16.1652C149.895 15.1966 149.779 14.4208 149.549 13.8378C149.318 13.2547 148.972 12.8316 148.51 12.5683C148.049 12.305 147.477 12.1733 146.795 12.1733C145.882 12.1733 145.105 12.3708 144.463 12.7657C143.831 13.1513 143.33 13.7108 142.958 14.4443L143.515 12.7516V23.7683H140.16Z" fill="#F8B32E"/>
</g>
</svg>
