<svg width="113" height="24" viewBox="0 0 113 24" fill="none" xmlns="http://www.w3.org/2000/svg">
<path d="M21.5 19.5H3.5V11.5L12.5 3L21.5 11.5V19.5Z" fill="#E8EAF6"/>
<path d="M20 10.5L17.5 8V4.5H20V10.5ZM3.5 19.5H21.5V22H3.5V19.5Z" fill="#C5CAE9"/>
<path d="M12.5 2.15039L2.5 11.4504L3.5 12.5504L12.5 4.20039L21.5 12.5504L22.5 11.4504L12.5 2.15039Z" fill="#4A4CC7"/>
<path d="M9.5 14H15.5V22H9.5V14Z" fill="#FFCC4D"/>
<path d="M11 8.5H14V11.5H11V8.5Z" fill="#4A4CC7"/>
<path d="M14.25 17.75C14.1 17.75 14 17.85 14 18V19C14 19.15 14.1 19.25 14.25 19.25C14.4 19.25 14.5 19.15 14.5 19V18C14.5 17.85 14.4 17.75 14.25 17.75Z" fill="#FF8A65"/>
<path d="M39.68 19.28C38.3667 19.28 37.28 19.02 36.42 18.5C35.5667 17.98 34.93 17.25 34.51 16.31C34.09 15.37 33.88 14.2667 33.88 13V5H36.44V12.34C36.44 13.0067 36.4833 13.6167 36.57 14.17C36.6567 14.7167 36.8133 15.19 37.04 15.59C37.2733 15.9833 37.6033 16.2867 38.03 16.5C38.4567 16.7133 39.0067 16.82 39.68 16.82C40.3533 16.82 40.9033 16.7133 41.33 16.5C41.7567 16.2867 42.0833 15.9833 42.31 15.59C42.5433 15.19 42.7033 14.7167 42.79 14.17C42.8767 13.6167 42.92 13.0067 42.92 12.34V5H45.48V13C45.48 14.2667 45.27 15.37 44.85 16.31C44.43 17.25 43.79 17.98 42.93 18.5C42.0767 19.02 40.9933 19.28 39.68 19.28ZM47.703 19V9H50.023L50.123 10.86L49.543 10.1C49.923 9.78 50.3763 9.49 50.903 9.23C51.4296 8.97 52.043 8.84 52.743 8.84C54.023 8.84 54.973 9.26667 55.593 10.12C56.213 10.9667 56.523 12.0667 56.523 13.42V19H54.043V13.62C54.043 12.6867 53.8863 11.9967 53.573 11.55C53.2663 11.1033 52.763 10.88 52.063 10.88C51.4963 10.88 51.033 11.02 50.673 11.3C50.313 11.5733 49.9963 11.94 49.723 12.4L50.183 11.18V19H47.703ZM58.7381 19V9H61.2181V19H58.7381ZM58.7381 7.48V5H61.2181V7.48H58.7381Z" fill="#4A4CC7"/>
<path d="M63.9428 19V5H69.1628C70.5028 5 71.6928 5.28 72.7328 5.84C73.7795 6.39333 74.5995 7.19333 75.1928 8.24C75.7861 9.28 76.0828 10.5333 76.0828 12C76.0828 13.4667 75.7861 14.7233 75.1928 15.77C74.5995 16.81 73.7795 17.61 72.7328 18.17C71.6928 18.7233 70.5028 19 69.1628 19H63.9428ZM66.2628 16.92H69.1628C70.1295 16.92 70.9361 16.72 71.5828 16.32C72.2295 15.9133 72.7161 15.3433 73.0428 14.61C73.3761 13.87 73.5428 13 73.5428 12C73.5428 11 73.3761 10.1333 73.0428 9.4C72.7161 8.66 72.2295 8.09 71.5828 7.69C70.9361 7.28333 70.1295 7.08 69.1628 7.08H66.2628V16.92ZM82.3488 19.2C81.2821 19.2 80.3721 18.9667 79.6188 18.5C78.8721 18.0333 78.2988 17.41 77.8988 16.63C77.5054 15.85 77.3088 14.99 77.3088 14.05C77.3088 13.11 77.5054 12.2467 77.8988 11.46C78.2988 10.6733 78.8721 10.0467 79.6188 9.58C80.3721 9.10667 81.2821 8.87 82.3488 8.87C83.4088 8.87 84.3154 9.10667 85.0688 9.58C85.8221 10.0467 86.3954 10.6733 86.7888 11.46C87.1888 12.2467 87.3888 13.11 87.3888 14.05C87.3888 14.99 87.1888 15.85 86.7888 16.63C86.3954 17.41 85.8221 18.0333 85.0688 18.5C84.3154 18.9667 83.4088 19.2 82.3488 19.2ZM82.3488 17.32C83.2288 17.32 83.9054 17.0233 84.3788 16.43C84.8588 15.83 85.0988 15.0367 85.0988 14.05C85.0988 13.05 84.8588 12.25 84.3788 11.65C83.9054 11.05 83.2288 10.75 82.3488 10.75C81.4688 10.75 80.7888 11.05 80.3088 11.65C79.8288 12.25 79.5888 13.05 79.5888 14.05C79.5888 15.0367 79.8288 15.83 80.3088 16.43C80.7888 17.0233 81.4688 17.32 82.3488 17.32ZM89.1488 19V9.07H91.1688L91.2788 10.34C91.6254 9.93333 92.0288 9.58667 92.4888 9.3C92.9488 9.01333 93.4454 8.87 93.9788 8.87C94.1388 8.87 94.2888 8.88667 94.4288 8.92L94.2488 11.19C94.1221 11.1567 93.9954 11.1367 93.8688 11.13C93.7421 11.1167 93.6121 11.11 93.4787 11.11C93.0254 11.11 92.6088 11.2133 92.2288 11.42C91.8488 11.6267 91.5821 11.8667 91.4288 12.14V19H89.1488ZM95.6527 19V9.07H97.5127L97.7427 10.69L97.2727 10.29C97.7327 9.85667 98.236 9.51667 98.7827 9.27C99.336 9.02333 99.9527 8.9 100.633 8.9C101.146 8.9 101.613 8.98 102.033 9.14C102.459 9.29333 102.829 9.53333 103.143 9.86C103.463 10.1867 103.719 10.6033 103.913 11.11L103.343 10.94C103.656 10.3 104.119 9.8 104.733 9.44C105.346 9.08 106.086 8.9 106.953 8.9C107.839 8.9 108.569 9.07667 109.143 9.43C109.716 9.77667 110.139 10.2833 110.413 10.95C110.693 11.6167 110.833 12.42 110.833 13.36V19H108.593V13.48C108.593 12.5533 108.436 11.8733 108.123 11.44C107.809 11 107.289 10.78 106.563 10.78C106.143 10.78 105.789 10.85 105.503 10.99C105.216 11.1233 104.989 11.3133 104.823 11.56C104.656 11.8067 104.536 12.0867 104.463 12.4C104.396 12.7133 104.363 13.0467 104.363 13.4V19H102.123V13.61C102.123 12.9233 102.046 12.3733 101.893 11.96C101.739 11.5467 101.509 11.2467 101.203 11.06C100.896 10.8733 100.516 10.78 100.063 10.78C99.456 10.78 98.9393 10.92 98.5127 11.2C98.0927 11.4733 97.7593 11.87 97.5127 12.39L97.8827 11.19V19H95.6527Z" fill="#F8B32E"/>
</svg>
