<svg width="106" height="107" viewBox="0 0 106 107" fill="none" xmlns="http://www.w3.org/2000/svg">
<g id="mingcute:video-line" opacity="0.6" clip-path="url(#clip0_442_32270)">
<g id="Group">
<path id="Vector" fill-rule="evenodd" clip-rule="evenodd" d="M88.0957 13.375C90.3032 13.3743 92.4294 14.2239 94.0481 15.7535C95.6668 17.2831 96.6583 19.3797 96.8238 21.6229L96.8457 22.2917V84.7083C96.8464 86.9579 96.0127 89.1246 94.5117 90.7741C93.0106 92.4236 90.9533 93.434 88.752 93.6027L88.0957 93.625H18.0957C15.8882 93.6257 13.762 92.7761 12.1433 91.2465C10.5246 89.7169 9.53314 87.6203 9.36758 85.3771L9.3457 84.7083V22.2917C9.345 20.0421 10.1787 17.8754 11.6798 16.2259C13.1808 14.5764 15.2381 13.566 17.4395 13.3973L18.0957 13.375H88.0957ZM88.0957 22.2917H18.0957V84.7083H88.0957V22.2917ZM45.8332 34.0528L48.0995 35.0782L49.5782 35.7915L51.2713 36.6386L53.1526 37.6105L55.2088 38.7251L57.427 39.9734L58.5907 40.6511L60.857 42.0109L62.9307 43.3127L64.812 44.5298L66.4745 45.6578L68.5745 47.129L70.167 48.3016L70.5826 48.6137C71.2578 49.1256 71.8061 49.7914 72.1839 50.5577C72.5617 51.3241 72.7585 52.1698 72.7585 53.0274C72.7585 53.885 72.5617 54.7308 72.1839 55.4971C71.8061 56.2635 71.2578 56.9292 70.5826 57.4412L69.1695 58.4889L67.2445 59.862L65.687 60.9276L63.9151 62.1001L61.9332 63.3618L59.7501 64.6993L57.4138 66.077L55.187 67.3342L53.1263 68.4488L51.2451 69.4296L49.5563 70.2678L46.8351 71.5518L45.8288 71.9976C45.0563 72.3369 44.2167 72.4874 43.3769 72.4374C42.5372 72.3873 41.7205 72.1379 40.9921 71.7092C40.2637 71.2804 39.6436 70.6842 39.1815 69.9679C38.7193 69.2517 38.4277 68.4353 38.3301 67.5839L38.0763 65.0649L37.9363 63.3975L37.7526 60.4372L37.652 58.1723L37.5863 55.698C37.5785 55.2611 37.5727 54.8242 37.5688 54.3872L37.5601 53.0274C37.5601 52.1045 37.5688 51.2129 37.5863 50.3524L37.652 47.878L37.7526 45.6177L37.8707 43.5802L38.002 41.7924L38.3301 38.4754C38.4272 37.6231 38.7184 36.8056 39.1805 36.0883C39.6427 35.371 40.2629 34.7737 40.9918 34.3441C41.7207 33.9145 42.5381 33.6644 43.3786 33.6138C44.2192 33.5632 45.0598 33.7135 45.8332 34.0528ZM48.5063 45.203L46.5988 44.2311L46.472 46.4023L46.3757 48.8589L46.3188 51.5785L46.3101 53.0274L46.3188 54.4764L46.3757 57.1915L46.4195 58.4532L46.5332 60.7715L46.5988 61.8193L48.4976 60.8473L50.6282 59.706L52.9688 58.3952L54.2113 57.673L56.622 56.2196L58.7832 54.8553L60.6907 53.607L61.5482 53.0274L59.7676 51.8237L57.7288 50.5129C56.5687 49.7811 55.3976 49.0677 54.2157 48.3729L52.9776 47.6551L50.6413 46.3444L48.5063 45.203Z" fill="#5570F1"/>
</g>
</g>
<defs>
<clipPath id="clip0_442_32270">
<rect width="105" height="107" fill="white" transform="translate(0.595703)"/>
</clipPath>
</defs>
</svg>
