<svg width="25" height="24" viewBox="0 0 25 24" fill="none" xmlns="http://www.w3.org/2000/svg">
<ellipse cx="12.5" cy="12" rx="12" ry="11.5" fill="#FFF2E2"/>
<g clip-path="url(#clip0_1312_13314)">
<path d="M20.2882 19.9515L17.854 17.5255C18.5049 16.6911 18.8122 15.6407 18.7134 14.5884C18.6146 13.536 18.117 12.5608 17.322 11.8612C16.5271 11.1617 15.4945 10.7904 14.4345 10.8231C13.3745 10.8557 12.3668 11.2897 11.6167 12.0369C10.8666 12.784 10.4303 13.788 10.3969 14.8444C10.3634 15.9008 10.7351 16.9302 11.4365 17.723C12.1378 18.5159 13.1159 19.0124 14.1717 19.1117C15.2275 19.2109 16.2816 18.9054 17.1193 18.2572L19.554 20.6833L20.2882 19.9515ZM14.5766 18.0958C13.9605 18.0958 13.3581 17.9137 12.8458 17.5725C12.3335 17.2313 11.9342 16.7464 11.6984 16.179C11.4626 15.6116 11.4009 14.9873 11.5211 14.385C11.6413 13.7827 11.938 13.2295 12.3737 12.7952C12.8094 12.361 13.3645 12.0653 13.9688 11.9454C14.5732 11.8256 15.1996 11.8871 15.7688 12.1221C16.3381 12.3571 16.8246 12.7551 17.167 13.2657C17.5093 13.7764 17.692 14.3767 17.692 14.9908C17.691 15.814 17.3625 16.6032 16.7785 17.1853C16.1944 17.7674 15.4026 18.0948 14.5766 18.0958ZM8.34585 18.0958H6.26893C5.9936 18.0955 5.72962 17.9864 5.53493 17.7923C5.34024 17.5983 5.23074 17.3352 5.23047 17.0608V14.9908H6.26893V17.0608H8.34585V18.0958ZM5.23047 10.8508H6.26893V12.9208H5.23047V10.8508ZM17.692 8.78078H16.6535V6.71078H14.5766V5.67578H16.6535C16.9289 5.67606 17.1929 5.78519 17.3875 5.97923C17.5822 6.17327 17.6917 6.43637 17.692 6.71078V8.78078ZM10.4228 5.67578H12.4997V6.71078H10.4228V5.67578ZM6.26893 8.78078H5.23047V6.71078C5.23074 6.43637 5.34024 6.17327 5.53493 5.97923C5.72962 5.78519 5.9936 5.67606 6.26893 5.67578H8.34585V6.71078H6.26893V8.78078Z" fill="#FFAD33"/>
</g>
<defs>
<clipPath id="clip0_1312_13314">
<rect width="16.6154" height="16.56" fill="white" transform="translate(4.19141 4.64062)"/>
</clipPath>
</defs>
</svg>
